# xmcd
#
# Track frame offsets: 
#        150
#        18772
#        33827
#        54462
#        69820
#        82630
#        98377
#        117655
#        135765
#        149550
#
# Disc length: 2248 seconds
#
# Revision: 1
# Processed by: cddbd v1.5.2PL0 Copyright (c) Steve Scherf et al.
# Submitted via: ExactAudioCopy v1.1
#
DISCID=6c08c60a
DTITLE=Maria Muldaur - Southern Winds
DYEAR=1978
DGENRE=Pop
TTITLE0=Make Love To The Music
TTITLE1=Say You Will
TTITLE2=I'll Keep My Light In My Window
TTITLE3=I Got A Man
TTITLE4=Cajun Moon
TTITLE5=I Can't Say No
TTITLE6=Here Is Where Your Love Belongs
TTITLE7=That's The Way Love Is
TTITLE8=Joyful Noise
TTITLE9=My Sisters And Brothers
EXTD=
EXTT0=
EXTT1=
EXTT2=
EXTT3=
EXTT4=
EXTT5=
EXTT6=
EXTT7=
EXTT8=
EXTT9=
PLAYORDER=
